<?xml version="1.0" standalone="no"?>
<!DOCTYPE svg PUBLIC "-//W3C//DTD SVG 20010904//EN"
 "http://www.w3.org/TR/2001/REC-SVG-20010904/DTD/svg10.dtd">
<svg version="1.0" xmlns="http://www.w3.org/2000/svg"
 width="700.000000pt" height="700.000000pt" viewBox="0 0 700.000000 700.000000"
 preserveAspectRatio="xMidYMid meet">
<metadata>
Created by potrace 1.14, written by Peter Selinger 2001-2017
</metadata>
<g transform="translate(0.000000,700.000000) scale(0.100000,-0.100000)"
fill="#000000" stroke="none">
<path d="M3285 6994 c-22 -2 -89 -9 -150 -14 -578 -57 -1180 -283 -1660 -625
-236 -169 -527 -443 -709 -670 -365 -456 -619 -1023 -715 -1597 -38 -225 -45
-321 -45 -583 -1 -263 8 -380 45 -595 137 -809 561 -1549 1194 -2085 532 -450
1170 -722 1890 -807 144 -16 586 -16 735 1 704 80 1348 354 1880 802 134 113
345 325 452 455 433 526 696 1153 780 1859 16 139 16 595 0 730 -103 852 -447
1557 -1043 2141 -555 542 -1251 875 -2029 970 -118 14 -539 27 -625 18z
m-1409 -2233 c57 -35 64 -66 64 -285 0 -220 -6 -247 -61 -287 -33 -24 -38 -24
-249 -24 -211 0 -216 0 -249 24 -55 40 -61 67 -61 287 0 180 2 199 21 233 38
68 48 70 289 71 193 0 218 -2 246 -19z m3734 2 c15 -9 38 -33 49 -53 19 -35
21 -53 21 -234 0 -220 -6 -247 -61 -287 l-34 -24 -1613 -3 c-1049 -1 -1627 1
-1651 8 -20 5 -50 24 -66 40 l-30 31 -3 219 c-3 244 1 264 61 300 31 20 63 20
1665 20 1504 0 1636 -1 1662 -17z m-3742 -973 c67 -41 72 -61 72 -290 0 -229
-5 -249 -72 -290 -30 -18 -51 -20 -239 -20 -198 0 -207 1 -240 23 -63 42 -69
68 -69 287 0 219 6 245 69 287 33 22 42 23 240 23 188 0 209 -2 239 -20z
m3743 -3 c63 -42 69 -68 69 -287 0 -219 -6 -245 -69 -287 l-34 -23 -1624 0
c-1801 0 -1670 -5 -1713 65 -18 30 -20 49 -20 245 0 195 2 215 20 245 43 70
-90 65 1711 65 l1626 0 34 -23z m-3734 -973 c57 -42 63 -69 63 -287 0 -223 -6
-251 -65 -287 -30 -18 -49 -20 -245 -20 -238 0 -251 3 -289 70 -19 35 -21 53
-21 234 0 216 6 248 56 283 43 31 52 32 271 30 187 -2 204 -4 230 -23z m3742
-3 c55 -40 61 -67 61 -287 0 -181 -2 -199 -21 -234 -43 -76 114 -70 -1711 -70
-1602 0 -1634 0 -1665 20 -60 36 -64 56 -61 300 l3 219 30 31 c16 17 43 35 60
39 17 5 728 9 1650 8 l1620 -2 34 -24z"/>
</g>
</svg>
